<svg t="1596605964330" class="icon" viewBox="0 0 1024 1024" version="1.1" xmlns="http://www.w3.org/2000/svg" p-id="2230" width="200" height="200"><path d="M39.384615 827.076923 228.430769 827.076923 228.430769 1016.123077 39.384615 1016.123077 39.384615 827.076923ZM291.446154 701.046154 480.492308 701.046154 480.492308 1016.123077 291.446154 1016.123077 291.446154 701.046154ZM543.507692 638.030769 732.553846 638.030769 732.553846 1016.123077 543.507692 1016.123077 543.507692 638.030769ZM795.569231 448.984615 984.615385 448.984615 984.615385 1016.123077 795.569231 1016.123077 795.569231 448.984615ZM39.384615 543.507692 354.461538 228.430769 543.507692 385.969231 827.076923 133.907692 732.553846 39.384615 984.615385 39.384615 984.615385 291.446154 890.092308 196.923077 543.507692 512 354.461538 354.461538 102.4 606.523077 39.384615 543.507692Z" p-id="2231" fill="#1296db"></path></svg>