<svg t="1596805659086" class="icon" viewBox="0 0 1024 1024" version="1.1" xmlns="http://www.w3.org/2000/svg" p-id="4475" width="200" height="200"><path d="M390.4 32h-256C76.8 32 32 76.8 32 134.4v748.8c0 57.6 44.8 102.4 102.4 102.4h256c19.2 0 32-12.8 32-32s-12.8-32-32-32h-256c-19.2 0-32-12.8-32-32V134.4c0-19.2 12.8-32 32-32h256c19.2 0 32-12.8 32-32S409.6 32 390.4 32zM889.6 32h-256c-19.2 0-32 12.8-32 32s12.8 32 32 32h256c19.2 0 32 12.8 32 32v748.8c0 19.2-12.8 32-32 32h-256c-19.2 0-32 12.8-32 32s12.8 32 32 32h256c57.6 0 102.4-44.8 102.4-102.4V134.4c0-51.2-51.2-102.4-102.4-102.4z" p-id="4476" fill="#1296db"></path><path d="M390.4 236.8H211.2c-19.2 0-32 19.2-32 38.4s12.8 32 32 32h179.2c19.2 0 32-12.8 32-32 6.4-19.2-12.8-38.4-32-38.4zM595.2 512c0 19.2 12.8 32 32 32h179.2c19.2 0 32-12.8 32-32s-12.8-32-32-32H633.6c-19.2 0-38.4 12.8-38.4 32zM211.2 544h121.6c19.2 0 32-12.8 32-32s-12.8-32-32-32H211.2c-19.2 0-32 12.8-32 32s12.8 32 32 32zM812.8 307.2c19.2 0 32-12.8 32-32s-12.8-32-32-32h-121.6c-19.2 0-32 12.8-32 32s12.8 32 32 32h121.6zM812.8 716.8h-121.6c-19.2 0-32 12.8-32 32s12.8 32 32 32h121.6c19.2 0 32-12.8 32-32s-12.8-32-32-32zM211.2 787.2h179.2c19.2 0 32-12.8 32-32s-12.8-32-32-32H211.2c-19.2 0-32 12.8-32 32 0 12.8 12.8 32 32 32zM512 0c-19.2 0-32 12.8-32 32v960c0 19.2 12.8 32 32 32s32-12.8 32-32V32C544 12.8 531.2 0 512 0z" p-id="4477" fill="#1296db"></path></svg>