<svg t="1595942919543" class="icon" viewBox="0 0 1511 1024" version="1.1" xmlns="http://www.w3.org/2000/svg" p-id="13320"><path d="M778.267685 511.037945c-7.336533-0.373748-14.714593-0.553701-22.120338-0.5537v105.618384a316.993579 316.993579 0 0 0 30.176681-1.578046c183.55174 15.891206 327.541575 169.875336 327.541575 357.524461v0.207637h0.968976l-0.041527 0.595228a51.092721 51.092721 0 1 0 102.185441 0l0.456803-4.734139c0-4.055857-0.484488-8.028658-1.384252-11.821508-5.744643-180.755553-115.584995-335.196485-271.562447-405.391875 72.133342-56.394404 118.519608-144.211315 118.519608-242.866915C1063.008205 137.912971 925.095235 0 754.970733 0 584.846232 0 446.919419 137.912971 446.919419 308.037472c0 98.890923 46.593903 186.846259 119.004096 243.240663-156.96027 71.039784-267.022102 227.446353-270.870321 410.015275-0.290693 2.214802-0.470645 4.484975-0.470646 6.82436l-0.456803 4.734139a51.092721 51.092721 0 1 0 102.199284 0l0.456803-4.734139c0-2.505495-0.179953-4.983305-0.526016-7.391903 5.675431-182.485867 147.519676-330.628456 327.333937-346.201284 10.312673 1.038189 20.763772 1.578047 31.38098 1.578046h0.456803v-105.618384c-7.419588 0-14.769963 0.207638-22.106495 0.5537-102.559189-11.212437-182.388969-98.101899-182.388969-203.692599C550.932072 194.182791 642.694099 102.434606 755.856654 102.434606s204.924583 91.762028 204.924583 204.924583c0 105.5907-79.871308 192.549375-182.513552 203.692599zM267.520433 553.285299C112.80265 625.211004 4.651085 780.454802 0.885921 961.417993a50.940453 50.940453 0 0 0-0.415276 6.672091L0 972.824224a51.092721 51.092721 0 1 0 102.185441 0l0.470646-4.73414c0-2.505495-0.179953-5.01099-0.553701-7.419587 3.460629-111.390713 57.681757-209.990943 140.293883-273.445029 54.927097-42.150456 86.280392-38.163812 132.251382-66.084164a70.956729 70.956729 0 0 0 34.191011-60.72711l0.678283-6.616722c0-31.145657-20.071646-57.612545-47.991997-67.177722l-1.218142-1.218141c-61.806827-35.284569-103.50048-101.811693-103.50048-178.083948 0-75.718554 41.084583-141.844245 102.157756-177.336451 33.872633-19.684055 47.756675-25.193376 78.680852-25.193376a48.531855 48.531855 0 0 0 48.531855-48.587226l0.442961-4.498817A48.55954 48.55954 0 0 0 440.150429 3.183778l-2.42244-2.42244C278.386806 12.596688 152.765989 145.581724 152.765989 307.940575c0 97.036026 44.863589 183.55174 114.948239 240.029199a63.260291 63.260291 0 0 0-0.22148 5.260155l0.027685 0.05537z m976.534018 0c154.717783 71.925705 262.869348 227.169503 266.620669 408.132694 0.290693 2.187117 0.429118 4.40192 0.429118 6.672091l0.470645 4.73414a51.092721 51.092721 0 1 1-102.199283 0l-0.456803-4.73414c0-2.505495 0.16611-5.01099 0.5537-7.419587-3.460629-111.390713-57.681757-209.990943-140.307725-273.445029-54.913254-42.150456-86.26655-38.163812-132.251382-66.084164a70.956729 70.956729 0 0 1-34.191011-60.72711l-0.664441-6.616722c0-31.145657 20.071646-57.612545 47.991998-67.177722l1.204299-1.218141c61.820669-35.284569 103.514322-101.811693 103.514322-178.083948 0-75.718554-41.098425-141.844245-102.157756-177.336451-33.886475-19.684055-47.756675-25.193376-78.680852-25.193376a48.531855 48.531855 0 0 1-48.545698-48.587226l-0.415275-4.498817A48.55954 48.55954 0 0 1 1071.410612 3.183778l2.408597-2.42244c159.355025 11.807665 284.962001 144.806543 284.962001 307.165394 0 97.036026-44.849747 183.55174-114.948239 240.029199 0.138425 1.730314 0.235323 3.474471 0.235322 5.260156l-0.027685 0.05537z" fill="" p-id="13321"></path></svg>