<svg t="1595937024767" class="icon" viewBox="0 0 1024 1024" version="1.1" xmlns="http://www.w3.org/2000/svg" p-id="5608"><path d="M683.015767 284.168073L584.743885 269.244013l-43.637604-93.733572a32.553652 32.553652 0 0 0-15.534986-15.534987 32.379102 32.379102 0 0 0-43.113952 15.534987l-44.24853 93.733572L340.373306 284.168073a32.379102 32.379102 0 0 0-18.327793 54.547004l71.827495 73.572999-16.407739 100.366488a32.466377 32.466377 0 0 0 14.225859 57.950737 32.553652 32.553652 0 0 0 5.236512 0A32.466377 32.466377 0 0 0 427.648513 548.175573l83.871473-46.255859 87.275207 48.175914a32.466377 32.466377 0 0 0 47.739538-33.600955l-17.455041-104.119321 71.827495-73.573a32.379102 32.379102 0 0 0-18.327794-54.547004z m-120.090684 122.185289l8.727521 54.459729-44.335805-24.437058a32.204551 32.204551 0 0 0-31.419075 0l-44.510355 24.524333 8.727521-54.459728a32.379102 32.379102 0 0 0-8.727521-27.840791l-39.186568-40.05932 52.365124-8.029319a32.291826 32.291826 0 0 0 24.437058-18.153243l22.167903-47.041337 22.080627 47.041337a32.204551 32.204551 0 0 0 25.30981 18.240518l52.365124 8.029319-39.186568 40.146595a32.379102 32.379102 0 0 0-8.814796 27.840791z" p-id="5609"></path><path d="M927.909997 87.275207h-78.547686V74.271201C848.925935 25.658911 823.267025 0 774.654735 0H249.345265C200.732975 0 175.074065 25.658911 175.074065 74.271201V87.275207H74.271201C23.215205 87.275207 0 137.371175 0 183.277934v130.91281c0 99.581011 69.820165 172.281258 175.33589 183.277934 7.331117 133.007415 196.45649 234.595756 284.342624 241.141396v70.692918H315.063496a56.728884 56.728884 0 0 0-52.365124 52.365124v109.443109c0 22.517003 29.848121 52.365124 52.365124 52.365124h372.054206c22.517003 0 52.365124-29.848121 52.365124-52.365124V862.191767c0-27.753516-29.324469-52.365124-52.365124-52.365124H542.502685V739.221001c92.075343-6.109264 298.044831-110.315861 306.161425-241.141396 103.682946-10.036649 175.33589-84.395125 175.33589-183.277934V187.554419c0-49.485042-48.525015-100.279212-96.090003-100.279212z m-161.895508 8.72752v328.503878c0 154.128015-137.633001 224.297281-265.142078 224.297281-112.061365 0-242.8869-58.736214-242.8869-224.384556V96.002727a21.382426 21.382426 0 0 1 13.265831-13.091281h481.322765a13.789483 13.789483 0 0 1 13.440382 13.091281z m-407.226114 796.735362h284.517173a21.382426 21.382426 0 0 1 13.265832 13.265832v20.160572c-2.967357 6.545641-8.727521 15.011336-13.265832 15.011336-28.451717 0-83.347822 0-138.331202-0.698202s-110.490412-0.698202-139.640331-0.698201c-5.585613 0-14.662235-8.203869-20.247848-14.836786v-18.851444a21.382426 21.382426 0 0 1 13.702208-13.353107zM941.175829 183.277934v130.91281c0 53.237876-33.426404 89.107986-92.249894 99.40646v-244.370578h78.547686a21.382426 21.382426 0 0 1 13.702208 14.051308z m-766.101764-12.829455v244.370578C116.337851 404.084207 82.911446 368.214097 82.911446 315.063496V183.277934a21.382426 21.382426 0 0 1 13.091281-12.829455z" p-id="5610"></path></svg>