<svg t="1597166743622" class="icon" viewBox="0 0 1024 1024" version="1.1" xmlns="http://www.w3.org/2000/svg" p-id="2161" width="200" height="200"><path d="M781.837839 368.51625 781.837839 77.091385 884.376218 77.091385C880.675584 262.971107 836.576373 339.142474 781.837839 368.51625M113.924942 77.091385 216.463321 77.091385 216.463321 368.51625C161.724788 339.142474 117.625575 262.971107 113.924942 77.091385M961.729726 38.543123C961.729726 17.264482 944.485808-0.00514 923.181466-0.00514L75.119691-0.00514C53.815351-0.00514 36.571429 17.264482 36.571429 38.543123L36.571429 51.392544C36.571429 208.540961 58.081359 411.279123 225.175228 454.041996 253.855135 568.915818 352.512988 655.957794 473.451737 666.879803L473.451737 925.153163 271.073359 925.153163C255.088679 925.153163 242.162162 942.422784 242.162162 963.701424 242.162162 985.005765 255.088679 1002.249684 271.073359 1002.249684L752.926641 1002.249684C768.911323 1002.249684 781.837839 985.005765 781.837839 963.701424 781.837839 942.422784 768.911323 925.153163 752.926641 925.153163L550.548263 925.153163 550.548263 663.281965C659.614147 643.211169 746.527629 560.666489 773.125932 454.041996 940.219802 411.279123 961.729726 208.540961 961.729726 51.392544 963.168863 47.357825 961.729726 43.091818 961.729726 38.543123" p-id="2162" fill="#d81e06"></path></svg>