<svg t="1595598909979" class="icon" viewBox="0 0 1024 1024" version="1.1" xmlns="http://www.w3.org/2000/svg" p-id="5641" width="200" height="200"><path d="M588.606208 135.01952c20.85376 58.53184 35.45088 128.14848 42.79296 204.28288a992.75264 992.75264 0 0 1 171.87328 20.736 244.6848 244.6848 0 0 1 9.71264-40.50944c11.35104-34.048 29.83424-63.64672 53.5552-85.7344a147.72224 147.72224 0 0 1 52.47488-32.17408 519.15264 519.15264 0 0 0-45.16352-51.65568 510.43328 510.43328 0 0 0-162.71872-109.66016A506.96192 506.96192 0 0 0 513.434368 0c29.98272 33.78176 55.19872 78.94528 75.17184 135.01952z m364.78464 123.35104c-32.37888 2.63168-65.46432 35.94752-80.44032 80.99328a188.50816 188.50816 0 0 0-8.07424 36.23936 703.0784 703.0784 0 0 1 154.09152 65.69472 505.3952 505.3952 0 0 0-35.45088-128.67072 526.7712 526.7712 0 0 0-27.0592-54.69696 43.76576 43.76576 0 0 1-3.06688 0.44032zM266.675968 213.1456c49.024 27.23328 83.94752 69.99552 101.12 123.66848 1.8432 5.90848 3.51232 11.87328 4.9152 17.89952a1588.57728 1588.57728 0 0 1 156.57984-15.09376c12.98944-0.49664 25.856-0.87552 38.5792-1.024-7.01952-68.21376-20.21376-130.28352-38.784-182.3488C503.752448 85.17632 468.828928 34.37056 428.140288 9.4208a22.54336 22.54336 0 0 1-3.01056-2.13504 511.68256 511.68256 0 0 0-302.336 171.99104c55.13728 0.05632 103.45984 11.40736 143.88224 33.8688z m756.38784 305.32096c-48.17408-32.87552-100.5056-57.8304-155.72992-76.02176 2.37056 13.1328 5.99552 27.02848 11.11552 41.73824 21.00224 59.96544 62.51008 119.1936 123.43808 176.26112 13.89568-45.69088 21.23776-93.07648 21.87776-141.51168a6.94272 6.94272 0 0 1-0.70144-0.46592z m-449.8688-102.49728l-0.58368-14.33088c-64.05632 0.76288-128.87552 6.5792-192.99328 16a311.9616 311.9616 0 0 1-3.12832 41.12384c-6.05696 43.20256-20.85376 86.84544-43.81696 129.8432-48.17408 90.0352-128.03072 169.09824-231.31136 229.12a513.23392 513.23392 0 0 0 48.6144 56.13056 509.78816 509.78816 0 0 0 162.71872 109.66016 508.48256 508.48256 0 0 0 136.6272 36.47488c84.82304-168.0128 131.15392-393.82528 123.87328-604.02176z m-263.05024-51.01056a139.38688 139.38688 0 0 0-2.57536-8.94976c-26.4704-82.98496-108.5184-123.61216-225.14176-111.3856a32.57344 32.57344 0 0 1-7.168-0.05632A508.672 508.672 0 0 0 4.537088 443.0848c106.4704-34.4832 208.6144-60.57472 305.60768-78.12608z m665.39008 356.85376c-77.62944-68.59264-130.33984-141.60384-156.63616-216.77568a325.5808 325.5808 0 0 1-17.60768-80.93696 920.26368 920.26368 0 0 0-165.41184-21.49888l0.46592 11.11552c3.62496 104.94976-5.49888 216.65792-26.55744 323.2768-20.67968 104.65792-51.62496 200.94976-92.07808 286.7712a510.39744 510.39744 0 0 0 356.21376-149.85216 509.80864 509.80864 0 0 0 104.09984-150.05696 17.96096 17.96096 0 0 1-2.48832-2.04288zM276.946688 558.7712c23.45984-43.87328 36.7104-88.91904 39.01952-130.63168-108.19584 19.8912-212.82816 48.87552-306.48832 79.85152A32.5632 32.5632 0 0 1 0.000768 509.57312v2.30912a509.0304 509.0304 0 0 0 66.74944 252.87168c119.13728-68.47488 180.03968-149.58592 210.19648-205.98272z" fill="#1296db" p-id="5642"></path></svg>