<svg t="1596606088249" class="icon" viewBox="0 0 1024 1024" version="1.1" xmlns="http://www.w3.org/2000/svg" p-id="3870" width="200" height="200"><path d="M395.636364 521.309091h-232.727273a23.738182 23.738182 0 0 0-23.272727 23.272727 23.272727 23.272727 0 0 0 23.272727 23.272727h232.727273a23.272727 23.272727 0 0 0 23.272727-23.272727 23.738182 23.738182 0 0 0-23.272727-23.272727zM861.090909 660.945455h-698.181818a23.738182 23.738182 0 0 0-23.272727 23.272727 23.272727 23.272727 0 0 0 23.272727 23.272727h698.181818a23.272727 23.272727 0 0 0 23.272727-23.272727 23.738182 23.738182 0 0 0-23.272727-23.272727zM861.090909 800.581818h-698.181818a23.738182 23.738182 0 0 0-23.272727 23.272727 23.272727 23.272727 0 0 0 23.272727 23.272728h698.181818a23.272727 23.272727 0 0 0 23.272727-23.272728 23.738182 23.738182 0 0 0-23.272727-23.272727z" fill="#1296db" p-id="3871"></path><path d="M930.909091 279.272727h-163.374546a46.545455 46.545455 0 0 0-12.101818-32.116363l-213.643636-232.727273a39.563636 39.563636 0 0 0-59.578182 0l-213.643636 232.727273a46.545455 46.545455 0 0 0-12.101818 32.116363H93.090909a93.090909 93.090909 0 0 0-93.090909 93.090909v558.545455a93.090909 93.090909 0 0 0 93.090909 93.090909h837.818182a93.090909 93.090909 0 0 0 93.090909-93.090909V372.363636a93.090909 93.090909 0 0 0-93.090909-93.090909z m-418.909091-223.883636l202.007273 220.16H310.458182zM977.454545 930.909091a46.545455 46.545455 0 0 1-46.545454 46.545454H93.090909a46.545455 46.545455 0 0 1-46.545454-46.545454V372.363636a46.545455 46.545455 0 0 1 46.545454-46.545454h837.818182a46.545455 46.545455 0 0 1 46.545454 46.545454z" fill="#1296db" p-id="3872"></path></svg>