<svg t="1595408424588" class="icon" viewBox="0 0 1024 1024" version="1.1" xmlns="http://www.w3.org/2000/svg" p-id="3014" width="200" height="200"><path d="M486.458 791.8c-2.322 4.644-4.644 9.288-4.644 13.932 2.322 16.254 16.254 27.864 32.508 27.864 13.932-2.322 25.542-13.932 27.864-27.864 0-4.644-2.322-9.288-4.644-13.932 30.186-13.932 41.796-51.083 27.864-81.27-13.932-30.185-51.084-41.795-81.27-27.863s-41.796 51.084-27.864 81.27c6.966 11.61 18.576 20.897 30.186 27.863z m390.095-255.419h-594.43V306.503c0-127.71 104.49-229.877 232.199-227.555h13.932C648.998 90.558 744.2 192.726 744.2 315.79v60.372c2.322 20.898 20.898 37.152 41.795 34.83 18.576-2.322 34.83-16.254 34.83-34.83v-69.66C820.825 136.998 681.505 0 512 0c-9.288 0-18.576 0-27.864 2.322-160.218 16.254-280.961 153.252-278.64 313.47V536.38h-58.05c-41.795 0-76.625 34.83-76.625 76.626v334.367c0 41.796 34.83 76.626 76.626 76.626H874.23c41.796 0 76.626-34.83 76.626-76.626V613.007c2.322-41.796-32.508-76.626-74.304-76.626z m0 410.993H147.447V613.007H874.23v334.367z" p-id="3015" fill="#1296db"></path></svg>