<svg t="1596985450442" class="icon" viewBox="0 0 1024 1024" version="1.1" xmlns="http://www.w3.org/2000/svg" p-id="4666" width="200" height="200"><path d="M555.008 649.557333c-12.629333-8.533333-26.624-13.312-43.349333-13.312-15.701333 0-29.696 4.778667-43.349334 13.312-12.629333 8.533333-18.773333 21.845333-18.773333 38.570667 0 16.384 6.144 29.013333 19.797333 38.570667 13.312 8.533333 26.624 13.312 42.325334 13.312 15.018667 0 29.013333-4.778667 42.325333-13.312 13.312-8.533333 19.797333-21.162667 19.797333-38.570667 0-16.725333-6.144-29.354667-18.773333-38.570667z m-80.213333-93.525333c10.24 8.533333 22.869333 13.312 36.864 13.312 13.994667 0 26.624-4.778667 36.864-13.312 10.24-8.533333 15.701333-19.797333 15.701333-33.109333 0-13.312-5.461333-24.234667-15.701333-33.109334-10.24-8.533333-22.869333-13.312-36.864-13.312-13.994667 0-26.624 4.778667-36.864 13.312-10.24 8.533333-15.701333 19.797333-15.701334 33.109334 0 13.312 4.778667 24.576 15.701334 33.109333z m0 0" p-id="4667" fill="#d81e06"></path><path d="M767.317333 251.221333V17.066667h-112.298666c-13.312 144.384-72.021333 252.928-143.018667 252.928S381.952 161.450667 368.64 17.066667H256.341333v234.154666c0 79.189333-50.176 148.48-123.904 182.272v573.44h758.784V433.493333c-73.728-33.792-123.904-103.082667-123.904-182.272z m-135.168 525.653334c-30.72 23.552-70.997333 35.498667-120.490666 35.498666s-89.429333-11.946667-120.490667-35.498666c-30.72-23.552-45.738667-51.882667-45.738667-86.357334 0-39.936 18.432-73.045333 54.613334-98.304-26.282667-21.845333-39.594667-47.786667-39.594667-77.141333 0-29.696 13.994667-54.954667 43.008-75.434667s64.853333-30.72 108.202667-30.72c43.008 0 79.189333 10.24 108.202666 30.72s43.008 45.397333 43.008 75.434667c0 29.696-13.312 55.637333-38.570666 77.141333 35.84 25.258667 54.613333 57.344 54.613333 98.304-1.024 33.450667-16.042667 62.805333-46.762667 86.357334z m0 0" p-id="4668" fill="#d81e06"></path></svg>