<svg t="1596951493471" class="icon" viewBox="0 0 1024 1024" version="1.1" xmlns="http://www.w3.org/2000/svg" p-id="1841" width="200" height="200"><path d="M922.606 168.8h-274.4V240l274.4-0.6c15.8 0 30.2 12.8 30.2 29.2v649.8c0 7.6-3 14.8-8.2 20.4-5.6 5.6-12.8 9.8-20.4 9.8l-823.8 1c-15.8 0-29.2-12.8-29.2-28.6V271c0-7.6 2.6-14.8 7.6-20.4 5.6-5.6 12.2-10.8 20.4-10.8h275l0.6-70.6h-275c-55.2 0-100.4 46-99.8 101.8v649.8c0 27.2 11.8 52.2 30.8 71.2s44 28.2 71.2 28.2h823.2c27.2 0 52.2-11.2 71.2-30.2s27.2-44.6 27.2-71.2l0.6-650.2c-0.2-55.8-45.8-99.8-101.6-99.8z" p-id="1842" fill="#13227a"></path><path d="M814.606 476.2h-216.6c-8.2 0-16.4 3.6-22 9.8-5.6 6.2-9.2 13.8-9.2 22s3 15.8 9.2 22c5.6 5.6 13.4 8.6 22 8.6h216.6c17.4 0 31.2-13.8 31.2-31.2s-13.8-31.2-31.2-31.2z m-217 259.8c-16.8 0-31.2 13.8-31.2 31.2 0 8.2 3 16.4 9.2 22 5.6 5.6 13.8 9.2 22 9.2h87c8.2 0 16.4-3 22-9.2 5.6-6.2 9.2-13.8 9.2-22 0.6-16.8-13.4-31.2-31.2-31.2h-87z m239-76.6c5.6-6.2 9.2-13.8 9.2-22s-3-16.4-9.2-22c-5.6-5.6-13.8-9.2-22-9.2l-216.6 0.4c-16.8 0-31.2 13.8-31.2 31.2s13.8 31.2 31.2 31.2h216.6c8.2 0 16.4-3.6 22-9.6z m-654.8 87.4c0 24.6 9.8 47 26.6 64.4 17.4 17.4 40 26.6 64.6 26.6l130-0.6c24.6 0 47.2-9.8 64.6-26.6 17.4-17.4 26.6-40.4 26.6-64.4 0.6-31.8-15.8-60.4-42.4-77.2 13.8-28.6 21-61.4 21-96.2 0-98.2-60.4-177.6-135.2-177.6s-134.6 80.4-134.6 178c0 34.2 7.6 67 21.6 96.2-27 16.6-43.4 45.6-42.8 77.4z m98.2-263c15.4-23 35.8-35.8 57.4-35.8s41.4 12.8 57.4 35.8c15.8 23.6 24.6 55.2 24.6 89.6 0 33.8-8.8 65.4-24 89.6-15.4 23-35.8 35.8-57.4 35.8s-41.4-12.8-57.4-35.8c-15.8-23.6-24.6-55.2-24.6-89.6 0-34.2 8.8-65.4 24-89.6z m-25.6 228.8c23.6 24.6 53.2 38.4 84 38.4 30.2 0 60-13.8 84-38.4 12.2 6.6 20 19.4 20 33.2 0 21-17.4 38.4-38.4 38.4h-130c-10.8 0-20.4-3.6-28.2-10.8-7.2-7.2-11.2-16.8-11.2-27.2-0.2-13.2 7.6-26 19.8-33.6z m100.4-421.6c0 7.2 2.6 13.8 7.6 18.4 5.2 5.2 11.8 7.6 18.4 7.6l260-0.6c14.4 0 26.6-11.8 26.6-26.6-0.6-14.4-12.2-26-27.2-26h-16.8V117c0-62-50.6-113-113.2-113-30 0-58.2 11.8-80.2 33.2-21.6 21.4-32.8 49.6-32.8 80.4l0.6 146.8h-16.8c-14.4 0.6-26.2 12.2-26.2 26.6z m112.2-216.4c11.2-11.2 26.6-17.4 42.4-17.4 15.8 0 30.8 6.2 42.4 17.4 11.2 11.2 18 26.6 18 42.4v103.8c0.6 0 1 43 1 43h-120.8l-0.6-146.8c0.2-15.2 6.2-30.6 17.6-42.4z" p-id="1843" fill="#13227a"></path><path d="M510.406 143.6c14.4 0 26.6-11.8 26.6-26.6-0.6-7.2-3.6-13.4-8.2-18.4-5.2-5.2-11.8-8.2-19-7.6-14.4 0-26.2 11.8-26.2 26.6s12 26 26.8 26z" p-id="1844" fill="#13227a"></path></svg>