<svg t="1596948905150" class="icon" viewBox="0 0 1024 1024" version="1.1" xmlns="http://www.w3.org/2000/svg" p-id="3678" width="200" height="200"><path d="M1003.52 780.288c-25.8048-43.008-25.3952-44.032-25.3952-44.032S888.832 761.4464 872.2432 675.84h-51.6096s-14.1312 85.8112-105.472 60.416c-26.4192 44.032-27.2384 45.2608-27.4432 45.2608 0 0 71.4752 49.9712 0 117.5552l27.8528 45.6704s78.848-33.9968 104.6528 58.7776H872.448s16.384-85.4016 105.0624-60.0064c25.1904-43.008 25.6-43.4176 25.6-43.4176s-66.7648-57.9584 0.4096-119.808z m-158.3104 119.808c-33.3824 0-60.416-27.0336-60.416-60.416s27.0336-60.416 60.416-60.416 60.416 27.0336 60.416 60.416-27.0336 60.416-60.416 60.416zM90.7264 726.016h-10.8544v-173.2608c0-8.6016 1.4336-15.1552 2.6624-19.0464l23.9616-4.9152c53.248-10.4448 108.544-21.504 136.8064-59.8016 8.192-10.8544 11.4688-27.0336 11.4688-55.296 0-13.7216-5.7344-26.8288-15.9744-35.6352-31.5392-28.0576-53.0432-78.848-53.4528-126.1568-0.6144-56.9344 2.8672-119.1936 32.9728-149.504 15.1552-15.1552 37.4784-22.7328 68.1984-22.7328 50.176 0 75.9808 19.456 89.4976 66.9696l57.1392-16.1792C412.2624 57.5488 362.9056 20.48 286.3104 20.48c-46.6944 0-83.968 13.5168-110.3872 40.3456-20.8896 21.0944-34.6112 49.5616-42.3936 87.04-5.7344 27.648-8.192 61.0304-7.7824 104.8576 0.6144 62.0544 27.8528 126.5664 69.4272 166.0928-0.2048 9.8304-1.024 14.7456-1.4336 16.9984-15.7696 18.432-58.1632 26.8288-98.9184 35.0208-10.4448 2.048-21.2992 4.3008-31.9488 6.5536-25.8048 5.7344-42.5984 35.2256-42.5984 75.3664v171.2128c0 13.312 0.8192 24.1664 4.3008 33.792 6.3488 17.2032 21.2992 27.648 39.7312 27.648h26.2144v-59.392z" p-id="3679" fill="#d81e06"></path><path d="M561.7664 539.4432c-10.24 9.216-16.384 22.7328-16.5888 36.2496-1.024 43.008 7.9872 55.7056 11.264 60.416l0.4096 0.6144c30.9248 41.984 90.9312 54.4768 148.8896 66.56 19.8656 4.096 25.8048 2.2528 44.2368 7.5776 17.6128-11.4688 28.0576-31.1296 28.0576-52.0192v-1.4336c-27.8528-6.5536-35.0208-6.7584-60.416-12.0832-45.8752-9.6256-93.184-19.456-111.616-41.7792-0.8192-3.4816-1.6384-11.264-1.6384-22.7328 46.8992-44.032 76.8-116.9408 76.8-186.9824 0-56.9344-3.2768-121.856-28.0576-171.8272-27.2384-54.8864-75.9808-82.7392-144.7936-82.7392-50.7904 0-91.136 14.7456-119.808 43.6224-22.7328 22.9376-38.0928 54.4768-46.4896 95.8464-6.3488 30.9248-9.0112 67.9936-8.6016 116.9408 0.6144 69.4272 30.9248 141.312 77.2096 184.7296-0.2048 13.9264-1.2288 20.0704-1.8432 22.3232-17.8176 22.1184-65.536 31.744-111.8208 40.96-63.2832 12.6976-128.6144 25.8048-162.4064 74.1376-35.0208 49.9712-47.7184 154.2144-52.4288 232.6528v0.2048c-0.8192 13.7216 4.3008 27.0336 13.7216 37.0688 9.4208 9.8304 22.528 15.5648 36.2496 15.5648h543.1296l-32.768-59.392H142.1312c6.144-92.3648 21.2992-163.84 41.1648-192.1024 20.2752-28.8768 73.728-39.5264 125.5424-49.9712 58.368-11.6736 118.784-23.7568 149.0944-65.536 8.6016-11.6736 12.288-29.0816 12.288-60.0064 0-13.9264-5.9392-27.2384-15.9744-36.864l-0.4096-0.4096C417.792 507.2896 393.4208 449.3312 393.0112 395.264c-0.6144-64.7168 3.2768-135.5776 37.888-170.5984 17.408-17.6128 42.8032-26.0096 77.6192-26.0096 83.968 0 113.664 50.9952 113.664 195.1744-0.2048 54.6816-24.3712 113.0496-60.416 145.6128z" p-id="3680" fill="#d81e06"></path><path d="M927.9488 534.9376c4.3008 2.4576 11.6736 11.264 11.6736 17.8176v131.8912h59.392v-131.8912c0-39.1168-32.9728-70.2464-56.7296-75.3664-8.6016-1.8432-17.2032-3.6864-25.6-5.3248-42.5984-8.8064-79.6672-16.384-95.8464-36.0448-0.4096-2.2528-1.2288-7.168-1.4336-16.9984 41.5744-39.5264 68.8128-104.0384 69.4272-166.0928 0.4096-43.6224-2.048-77.0048-7.7824-104.6528-7.7824-37.4784-21.504-66.1504-42.3936-87.04-26.4192-26.624-63.488-40.3456-110.3872-40.3456-76.5952 0-125.952 37.0688-146.432 110.1824l57.1392 16.1792c13.5168-47.5136 39.3216-66.9696 89.4976-66.9696 30.72 0 53.0432 7.3728 68.1984 22.7328 30.1056 30.3104 33.5872 92.5696 32.9728 149.504-0.6144 47.3088-22.1184 98.0992-53.4528 126.1568-10.24 9.0112-15.9744 21.9136-15.9744 35.6352 0 28.2624 3.2768 44.4416 11.4688 55.296 28.8768 39.3216 79.6672 49.7664 133.12 60.8256 7.3728 1.024 15.36 2.6624 23.1424 4.5056z" p-id="3681" fill="#d81e06"></path></svg>