<svg t="1596949177321" class="icon" viewBox="0 0 1024 1024" version="1.1" xmlns="http://www.w3.org/2000/svg" p-id="5160" width="200" height="200"><path d="M511.879529 0c-19.998118 0-40.297412 1.204706-61.801411 3.915294L446.644706 3.614118 446.343529 3.433412a506.398118 506.398118 0 0 0-297.261176 145.167059 506.398118 506.398118 0 0 0-148.299294 335.510588C0.180706 493.929412 0 502.964706 0 512 0 794.383059 229.737412 1024 512 1024c282.383059 0 512-229.616941 512-512C1024 229.616941 794.262588 0 511.879529 0z m3.553883 59.512471a448.512 448.512 0 0 1 261.180235 85.775058l3.011765 2.168471 0.602353 3.674353c4.999529 31.683765-3.493647 71.860706-24.997647 119.326118-20.359529 44.995765-53.007059 95.774118-94.027294 147.154823l-5.963295 7.408941-6.987294-6.505411a1051.708235 1051.708235 0 0 0-51.2-45.056c-26.925176-22.226824-56.079059-44.152471-86.678588-65.355295l-6.505412-4.577882 3.915294-6.987294c2.831059-4.999529 5.421176-10.179765 7.830589-15.299765 21.564235-45.537882 28.672-93.244235 20.419764-137.938823a186.910118 186.910118 0 0 0-28.129882-70.053647l-9.035294-13.733647h16.564706zM249.313882 143.721412a447.668706 447.668706 0 0 1 185.825883-77.70353l4.096-0.662588 3.19247 2.710588c53.067294 45.778824 65.475765 121.675294 31.563294 193.355294-1.204706 2.770824-2.590118 5.421176-3.975529 8.011295l-4.457412 8.432941-8.131764-5.12C379.602824 223.593412 302.140235 184.079059 250.578824 158.72l-13.19153-6.565647 11.926588-8.432941zM75.414588 392.734118a453.270588 453.270588 0 0 1 119.567059-203.414589l4.818824-4.698353 5.782588 3.312942 1.204706 0.783058c87.943529 42.706824 158.659765 81.136941 222.629647 121.253648l9.155764 5.722352-7.469176 7.830589c-56.741647 60.054588-141.613176 93.123765-238.772706 93.123764A495.314824 495.314824 0 0 1 81.92 403.576471l-8.914824-2.048 2.409412-8.794353z m82.341647 400.685176l-3.975529-5.300706a447.548235 447.548235 0 0 1-90.834824-331.535059l1.144471-9.637647 9.456941 2.168471c40.779294 9.155765 80.896 13.854118 119.265882 13.854118 114.386824 0 213.714824-41.200941 279.250824-115.772236l5.180235-5.842823 6.384941 4.457412c50.657882 34.936471 96.376471 71.258353 135.529412 108.122352l6.324706 5.963295-5.722353 6.384941c-128.301176 142.336-294.550588 260.758588-455.80047 324.608l-6.204236 2.529882z m507.181177 128.120471c0 1.024 0.240941 2.168471 0.481882 3.19247l1.385412 7.469177-7.107765 2.469647c-48.609882 17.167059-99.388235 25.901176-151.190588 25.901176a451.162353 451.162353 0 0 1-308.404706-121.072941l-9.938823-9.276235 12.468705-5.240471c117.278118-49.995294 236.242824-126.674824 343.823059-221.726117a1363.907765 1363.907765 0 0 0 105.110588-103.604706l6.565648-7.04753 6.505411 7.107765c31.141647 33.731765 58.428235 69.089882 81.136941 104.929882l3.312942 5.360942-4.035765 4.879058a314.428235 314.428235 0 0 0-37.044706 58.428236c-33.430588 67.222588-47.947294 150.889412-43.008 248.229647z m163.659294-93.485177a452.969412 452.969412 0 0 1-105.170824 78.366118l-12.649411 6.866823-0.361412-14.45647c-1.746824-80.474353 11.444706-149.624471 38.972235-205.221647a286.72 286.72 0 0 1 15.661177-27.708236l8.493176-13.251764 6.866824 14.215529c21.985882 45.658353 37.767529 93.605647 46.983529 142.456471a23.371294 23.371294 0 0 0 2.891294 7.529412l3.132235 6.26447-4.818823 4.939294z m125.409882-241.061647a448.271059 448.271059 0 0 1-73.728 179.2l-10.962823 15.781647-4.818824-18.672941a626.567529 626.567529 0 0 0-54.934588-140.047059l-3.433412-6.26447 5.541647-4.577883c11.444706-9.637647 23.672471-17.769412 36.261647-24.274823 22.166588-11.444706 45.296941-17.408 66.56-17.408 13.071059 0 25.057882 2.409412 34.454589 6.746353l6.023529 2.891294-0.963765 6.625882z m6.384941-55.41647l-10.782117-2.831059a138.782118 138.782118 0 0 0-35.418353-4.336941 195.463529 195.463529 0 0 0-87.341177 22.528c-12.769882 6.505412-25.298824 14.516706-37.165176 23.792941l-7.529412 5.842823-5.300706-7.830588a824.621176 824.621176 0 0 0-83.727059-105.411765l-5.300705-5.601882 4.818823-6.023529c45.778824-56.139294 81.799529-112.278588 104.568471-162.213647 13.613176-30.117647 22.889412-58.548706 27.346823-84.389648l3.011765-17.287529 12.047059 12.649412c7.830588 8.252235 14.456471 15.841882 20.540235 23.130353l3.975529 5.059764c1.987765 2.409412 3.794824 4.818824 5.722353 7.228236a453.872941 453.872941 0 0 1 90.654118 284.732235l-0.120471 11.023059z" fill="#d81e06" p-id="5161"></path><path d="M830.223059 793.961412a544.768 544.768 0 0 0-47.766588-139.745883l-6.987295-13.854117-8.613647 13.010823a254.494118 254.494118 0 0 0-15.902117 27.105883c-28.009412 54.573176-41.381647 122.337882-39.634824 201.366588l0.361412 14.155294 12.890353-6.746353a459.173647 459.173647 0 0 0 106.797176-76.860235l4.879059-4.698353-3.132235-6.204235a24.033882 24.033882 0 0 1-2.891294-7.529412z m88.545882-234.134588c-21.744941 0-45.116235 6.023529-67.644235 17.106823a202.390588 202.390588 0 0 0-36.864 23.792941l-5.541647 4.457412 3.493647 6.204235a602.352941 602.352941 0 0 1 55.777882 137.336471l4.818824 18.311529 11.203764-15.48047a428.513882 428.513882 0 0 0 74.812236-175.766589l1.204706-6.505411-6.204236-2.831059c-9.637647-4.216471-21.684706-6.625882-35.056941-6.625882zM185.223529 408.636235c98.605176 0 184.862118-32.406588 242.447059-91.316706l7.589647-7.649882-9.276235-5.601882C360.990118 264.673882 289.129412 226.846118 199.860706 185.103059l-1.204706-0.783059-5.903059-3.252706-4.879059 4.577882a440.681412 440.681412 0 0 0-121.434353 199.55953l-2.409411 8.673882 9.035294 1.987765a519.168 519.168 0 0 0 112.158117 12.830118z m269.251765-141.131294l8.192 4.99953 4.517647-8.252236 4.096-7.830588c34.334118-70.475294 21.865412-144.805647-32.105412-189.741176l-3.252705-2.650353-4.156236 0.602353A461.824 461.824 0 0 0 243.049412 140.950588l-12.16753 8.432941 13.312 6.384942c52.525176 24.877176 131.192471 63.488 210.221177 111.796705z" fill="#d81e06" p-id="5162"></path></svg>