<?xml version="1.0" standalone="no"?><!DOCTYPE svg PUBLIC "-//W3C//DTD SVG 1.1//EN" "http://www.w3.org/Graphics/SVG/1.1/DTD/svg11.dtd"><svg t="1595407097764" class="icon" viewBox="0 0 1149 1024" version="1.1" xmlns="http://www.w3.org/2000/svg" p-id="2180" xmlns:xlink="http://www.w3.org/1999/xlink" width="224.4140625" height="200"><defs><style type="text/css"></style></defs><path d="M297.204765 221.571813zM234.391572 269.544526a79.37931 79.37931 0 0 0 69.025487-86.281858V86.281859a79.37931 79.37931 0 0 0-69.025487-86.281859 79.724437 79.724437 0 0 0-69.025487 86.281859v96.980809a79.724437 79.724437 0 0 0 69.025487 86.281858z m913.207191-92.494152A71.096251 71.096251 0 0 0 1069.94509 103.53823h-40.37991v138.050974a59.707046 59.707046 0 0 1-59.361918 60.397301H852.514806A55.565517 55.565517 0 0 1 795.913907 241.589204V103.53823H352.425154v138.050974a55.565517 55.565517 0 0 1-56.600899 58.671664H178.1358A59.707046 59.707046 0 0 1 118.773881 241.589204V103.53823H77.013462A71.096251 71.096251 0 0 0 0.050044 177.050374v767.908541a78.343928 78.343928 0 0 0 79.37931 79.034182H1069.94509a78.343928 78.343928 0 0 0 79.37931-79.034182V182.227285v-5.176911zM575.722604 862.818586c0 60.052174-114.582308 73.512143-222.607195 73.512143S129.472832 923.215887 129.472832 862.818586v-16.566117C129.472832 802.766412 207.126504 759.280355 276.151991 733.740925c4.831784-1.725637 28.30045-14.495352 15.185607-48.662968a216.049774 216.049774 0 0 1-58.671663-144.263268A116.9982 116.9982 0 0 1 352.770282 414.152921a116.9982 116.9982 0 0 1 120.104347 127.352023 216.394901 216.394901 0 0 1-58.671664 142.882758c-12.769715 38.654273 7.592804 47.972713 11.044078 49.008096 70.751124 23.468666 150.475561 69.025487 150.475561 112.856671z m394.13553-27.610195h-250.907645a53.83988 53.83988 0 1 1 0-107.67976h250.907645a53.83988 53.83988 0 1 1 0 107.67976z m0-213.288754h-250.907645a53.83988 53.83988 0 1 1 0-107.67976h250.907645a53.83988 53.83988 0 0 1 0 107.67976zM914.637745 269.544526a79.724437 79.724437 0 0 0 69.025486-86.281858V86.281859A81.450074 81.450074 0 0 0 911.876725 0a77.653673 77.653673 0 0 0-69.025487 86.281859v96.980809a79.724437 79.724437 0 0 0 69.025487 86.281858z m0 0" p-id="2181" fill="#1296db"></path></svg>